<svg width="64" height="24" viewBox="0 0 64 24" fill="none" xmlns="http://www.w3.org/2000/svg">
<path d="M12 0.75H52C58.2132 0.75 63.25 5.7868 63.25 12C63.25 18.2132 58.2132 23.25 52 23.25H12C5.7868 23.25 0.75 18.2132 0.75 12C0.75 5.7868 5.7868 0.75 12 0.75Z" stroke="#079455" stroke-width="1.5"/>
<path d="M19 9.5L15.0657 13.4343C14.8677 13.6323 14.7687 13.7313 14.6545 13.7684C14.5541 13.8011 14.4459 13.8011 14.3455 13.7684C14.2313 13.7313 14.1323 13.6323 13.9343 13.4343L12.5657 12.0657C12.3677 11.8677 12.2687 11.7687 12.1545 11.7316C12.0541 11.6989 11.9459 11.6989 11.8455 11.7316C11.7313 11.7687 11.6323 11.8677 11.4343 12.0657L9 14.5M19 9.5H15.5M19 9.5V13" stroke="#079455" stroke-width="1.5" stroke-linecap="round" stroke-linejoin="round"/>
<path d="M25.2138 17V15.8864L28.6591 12.3168C29.027 11.929 29.3303 11.5893 29.5689 11.2976C29.8108 11.0026 29.9915 10.7225 30.1108 10.4574C30.2301 10.1922 30.2898 9.91051 30.2898 9.61222C30.2898 9.27415 30.2102 8.98248 30.0511 8.73722C29.892 8.48864 29.675 8.29806 29.3999 8.16548C29.1248 8.02959 28.8149 7.96165 28.4702 7.96165C28.1056 7.96165 27.7874 8.03622 27.5156 8.18537C27.2438 8.33452 27.035 8.54498 26.8892 8.81676C26.7434 9.08854 26.6705 9.40672 26.6705 9.77131H25.2038C25.2038 9.15151 25.3464 8.60961 25.6314 8.1456C25.9164 7.68158 26.3075 7.32197 26.8047 7.06676C27.3018 6.80824 27.867 6.67898 28.5 6.67898C29.1397 6.67898 29.7031 6.80658 30.1903 7.06179C30.6809 7.31368 31.0637 7.65838 31.3388 8.09588C31.6139 8.53007 31.7514 9.0206 31.7514 9.56747C31.7514 9.94531 31.6802 10.3149 31.5376 10.6761C31.3984 11.0374 31.1548 11.4401 30.8068 11.8842C30.4588 12.325 29.9749 12.8603 29.3551 13.4901L27.3317 15.608V15.6825H31.9155V17H25.2138ZM34.799 17.0945C34.5272 17.0945 34.2936 16.9983 34.098 16.8061C33.9025 16.6106 33.8047 16.3752 33.8047 16.1001C33.8047 15.8284 33.9025 15.5964 34.098 15.4041C34.2936 15.2086 34.5272 15.1108 34.799 15.1108C35.0708 15.1108 35.3045 15.2086 35.5 15.4041C35.6955 15.5964 35.7933 15.8284 35.7933 16.1001C35.7933 16.2824 35.7469 16.4498 35.6541 16.6023C35.5646 16.7514 35.4453 16.8707 35.2962 16.9602C35.147 17.0497 34.9813 17.0945 34.799 17.0945ZM40.397 6.81818V17H38.8558V8.35938H38.7962L36.3601 9.95028V8.47869L38.9006 6.81818H40.397ZM48.4659 15.0909V14.554C48.4659 14.1695 48.5455 13.8182 48.7045 13.5C48.867 13.1785 49.1023 12.9216 49.4105 12.7294C49.7221 12.5339 50.0982 12.4361 50.5391 12.4361C50.9898 12.4361 51.3677 12.5322 51.6726 12.7244C51.9775 12.9167 52.2079 13.1735 52.3636 13.495C52.5227 13.8165 52.6023 14.1695 52.6023 14.554V15.0909C52.6023 15.4754 52.5227 15.8284 52.3636 16.1499C52.2045 16.468 51.9709 16.7249 51.6626 16.9205C51.3577 17.1127 50.9832 17.2088 50.5391 17.2088C50.0916 17.2088 49.7138 17.1127 49.4055 16.9205C49.0973 16.7249 48.8636 16.468 48.7045 16.1499C48.5455 15.8284 48.4659 15.4754 48.4659 15.0909ZM49.6243 14.554V15.0909C49.6243 15.3759 49.6922 15.6345 49.8281 15.8665C49.964 16.0985 50.201 16.2145 50.5391 16.2145C50.8738 16.2145 51.1075 16.0985 51.2401 15.8665C51.3726 15.6345 51.4389 15.3759 51.4389 15.0909V14.554C51.4389 14.2689 51.3743 14.0104 51.245 13.7784C51.1191 13.5464 50.8838 13.4304 50.5391 13.4304C50.2076 13.4304 49.9723 13.5464 49.8331 13.7784C49.6939 14.0104 49.6243 14.2689 49.6243 14.554ZM43.3452 9.2642V8.72727C43.3452 8.3428 43.4247 7.98982 43.5838 7.66832C43.7462 7.34683 43.9815 7.08996 44.2898 6.89773C44.6013 6.70549 44.9775 6.60938 45.4183 6.60938C45.8691 6.60938 46.2469 6.70549 46.5518 6.89773C46.8568 7.08996 47.0871 7.34683 47.2429 7.66832C47.3987 7.98982 47.4766 8.3428 47.4766 8.72727V9.2642C47.4766 9.64867 47.397 10.0017 47.2379 10.3232C47.0821 10.6413 46.8501 10.8982 46.5419 11.0938C46.237 11.286 45.8625 11.3821 45.4183 11.3821C44.9676 11.3821 44.5881 11.286 44.2798 11.0938C43.9749 10.8982 43.7429 10.6413 43.5838 10.3232C43.4247 10.0017 43.3452 9.64867 43.3452 9.2642ZM44.5085 8.72727V9.2642C44.5085 9.54924 44.5748 9.80776 44.7074 10.0398C44.8433 10.2718 45.0803 10.3878 45.4183 10.3878C45.7498 10.3878 45.9818 10.2718 46.1143 10.0398C46.2502 9.80776 46.3182 9.54924 46.3182 9.2642V8.72727C46.3182 8.44223 46.2536 8.18371 46.1243 7.9517C45.995 7.7197 45.7597 7.60369 45.4183 7.60369C45.0869 7.60369 44.8516 7.7197 44.7124 7.9517C44.5765 8.18371 44.5085 8.44223 44.5085 8.72727ZM43.8175 17L50.8175 6.81818H52.0057L45.0057 17H43.8175Z" fill="#067647"/>
</svg>
