<svg width="66" height="24" viewBox="0 0 66 24" fill="none" xmlns="http://www.w3.org/2000/svg">
<path d="M12 0.75H54C60.2132 0.75 65.25 5.7868 65.25 12C65.25 18.2132 60.2132 23.25 54 23.25H12C5.7868 23.25 0.75 18.2132 0.75 12C0.75 5.7868 5.7868 0.75 12 0.75Z" stroke="#079455" stroke-width="1.5"/>
<path d="M19 9.5L15.0657 13.4343C14.8677 13.6323 14.7687 13.7313 14.6545 13.7684C14.5541 13.8011 14.4459 13.8011 14.3455 13.7684C14.2313 13.7313 14.1323 13.6323 13.9343 13.4343L12.5657 12.0657C12.3677 11.8677 12.2687 11.7687 12.1545 11.7316C12.0541 11.6989 11.9459 11.6989 11.8455 11.7316C11.7313 11.7687 11.6323 11.8677 11.4343 12.0657L9 14.5M19 9.5H15.5M19 9.5V13" stroke="#079455" stroke-width="1.5" stroke-linecap="round" stroke-linejoin="round"/>
<path d="M25.7844 17L30.229 8.21023V8.13565H25.0883V6.81818H31.8199V8.1804L27.3902 17H25.7844ZM32.798 17.0945C32.5262 17.0945 32.2926 16.9983 32.097 16.8061C31.9015 16.6106 31.8037 16.3752 31.8037 16.1001C31.8037 15.8284 31.9015 15.5964 32.097 15.4041C32.2926 15.2086 32.5262 15.1108 32.798 15.1108C33.0698 15.1108 33.3035 15.2086 33.499 15.4041C33.6946 15.5964 33.7923 15.8284 33.7923 16.1001C33.7923 16.2824 33.7459 16.4498 33.6531 16.6023C33.5637 16.7514 33.4443 16.8707 33.2952 16.9602C33.146 17.0497 32.9803 17.0945 32.798 17.0945ZM35.5498 15.0114V13.7685L39.9497 6.81818H40.9291V8.64773H40.3076L37.1606 13.6293V13.7088H43.1911V15.0114H35.5498ZM40.3772 17V14.6335L40.3872 14.0668V6.81818H41.8438V17H40.3772ZM50.2384 15.0909V14.554C50.2384 14.1695 50.3179 13.8182 50.477 13.5C50.6394 13.1785 50.8747 12.9216 51.183 12.7294C51.4945 12.5339 51.8707 12.4361 52.3115 12.4361C52.7623 12.4361 53.1401 12.5322 53.445 12.7244C53.75 12.9167 53.9803 13.1735 54.1361 13.495C54.2952 13.8165 54.3747 14.1695 54.3747 14.554V15.0909C54.3747 15.4754 54.2952 15.8284 54.1361 16.1499C53.977 16.468 53.7433 16.7249 53.4351 16.9205C53.1302 17.1127 52.7557 17.2088 52.3115 17.2088C51.8641 17.2088 51.4862 17.1127 51.178 16.9205C50.8698 16.7249 50.6361 16.468 50.477 16.1499C50.3179 15.8284 50.2384 15.4754 50.2384 15.0909ZM51.3968 14.554V15.0909C51.3968 15.3759 51.4647 15.6345 51.6006 15.8665C51.7365 16.0985 51.9735 16.2145 52.3115 16.2145C52.6463 16.2145 52.8799 16.0985 53.0125 15.8665C53.1451 15.6345 53.2114 15.3759 53.2114 15.0909V14.554C53.2114 14.2689 53.1468 14.0104 53.0175 13.7784C52.8915 13.5464 52.6562 13.4304 52.3115 13.4304C51.9801 13.4304 51.7448 13.5464 51.6056 13.7784C51.4664 14.0104 51.3968 14.2689 51.3968 14.554ZM45.1176 9.2642V8.72727C45.1176 8.3428 45.1972 7.98982 45.3563 7.66832C45.5187 7.34683 45.754 7.08996 46.0622 6.89773C46.3738 6.70549 46.75 6.60938 47.1908 6.60938C47.6415 6.60938 48.0194 6.70549 48.3243 6.89773C48.6292 7.08996 48.8596 7.34683 49.0154 7.66832C49.1711 7.98982 49.249 8.3428 49.249 8.72727V9.2642C49.249 9.64867 49.1695 10.0017 49.0104 10.3232C48.8546 10.6413 48.6226 10.8982 48.3144 11.0938C48.0094 11.286 47.6349 11.3821 47.1908 11.3821C46.74 11.3821 46.3605 11.286 46.0523 11.0938C45.7474 10.8982 45.5154 10.6413 45.3563 10.3232C45.1972 10.0017 45.1176 9.64867 45.1176 9.2642ZM46.281 8.72727V9.2642C46.281 9.54924 46.3473 9.80776 46.4798 10.0398C46.6157 10.2718 46.8527 10.3878 47.1908 10.3878C47.5222 10.3878 47.7542 10.2718 47.8868 10.0398C48.0227 9.80776 48.0906 9.54924 48.0906 9.2642V8.72727C48.0906 8.44223 48.026 8.18371 47.8968 7.9517C47.7675 7.7197 47.5322 7.60369 47.1908 7.60369C46.8593 7.60369 46.624 7.7197 46.4848 7.9517C46.3489 8.18371 46.281 8.44223 46.281 8.72727ZM45.5899 17L52.5899 6.81818H53.7781L46.7781 17H45.5899Z" fill="#067647"/>
</svg>
